<svg xmlns="http://www.w3.org/2000/svg" viewBox="0 0 129.72 129.72"><g id="Слой_2" data-name="Слой 2"><g id="Слой_1-2" data-name="Слой 1"><circle cx="64.86" cy="64.86" r="64.86" style="fill:#ce322e"/><path d="M49.34,96h0a3,3,0,0,1,1.41-3.85,34.27,34.27,0,0,1,30.7.1,3,3,0,0,1,1.25,4.23l0,0A3,3,0,0,1,79,97.73a34.11,34.11,0,0,0-26.05-.29A2.75,2.75,0,0,1,49.34,96Z" style="fill:#542915"/><circle cx="41.85" cy="68.67" r="7.25" style="fill:#542915"/><circle cx="90.38" cy="68.67" r="7.25" style="fill:#542915"/><path d="M35.92,52.65v.12a2.07,2.07,0,0,0,1.93,1.9,13.5,13.5,0,0,1,8.45,3.41,12.73,12.73,0,0,1,3,4,2.05,2.05,0,0,0,2.33,1.12h0a2.08,2.08,0,0,0,1.47-2.8,16.1,16.1,0,0,0-6.87-8,15.9,15.9,0,0,0-8.33-2A2.07,2.07,0,0,0,35.92,52.65Z" style="fill:#542915"/><path d="M96.07,52.65v.12a2.07,2.07,0,0,1-1.93,1.9,13.53,13.53,0,0,0-8.46,3.41,12.84,12.84,0,0,0-3,4,2.07,2.07,0,0,1-2.34,1.12h0a2.08,2.08,0,0,1-1.46-2.8,15.62,15.62,0,0,1,15.2-10A2.08,2.08,0,0,1,96.07,52.65Z" style="fill:#542915"/></g></g></svg>