<svg xmlns="http://www.w3.org/2000/svg" viewBox="0 0 129.72 129.72"><g id="Слой_2" data-name="Слой 2"><g id="Слой_1-2" data-name="Слой 1"><circle cx="64.86" cy="64.86" r="64.86" style="fill:#ffcf18"/><path d="M39.29,48.79a1.13,1.13,0,0,1,1.17,1.69,10.28,10.28,0,0,1-7.68,4.93,9.29,9.29,0,0,1-9.08-5.24,1,1,0,0,1,1.12-1.42,32.61,32.61,0,0,0,6.41.77A38.14,38.14,0,0,0,39.29,48.79Z" style="fill:#542915"/><path d="M102.78,48.79A1.13,1.13,0,0,1,104,50.48a10.26,10.26,0,0,1-7.67,4.93,9.28,9.28,0,0,1-9.08-5.24,1,1,0,0,1,1.11-1.42,32.61,32.61,0,0,0,6.41.77A38.14,38.14,0,0,0,102.78,48.79Z" style="fill:#542915"/><path d="M104.37,80.51h23.45a62.35,62.35,0,0,1-2.29,7.33H99.22A2.21,2.21,0,0,0,97,90.06V99.4a3.33,3.33,0,0,1-3.33,3.33H35.44a3.33,3.33,0,0,1-3.33-3.33V90.28a2,2,0,0,0-2-2H4.36a62.41,62.41,0,0,1-2.17-6.66H24.84a1.74,1.74,0,0,0,.79-3.29L0,65.32c0-.15,0-.3,0-.45A64.74,64.74,0,0,1,.88,54.2L29.1,70.54a2,2,0,0,0,3-1.74V66.5a3.33,3.33,0,0,1,3.33-3.33H93.53a3.33,3.33,0,0,1,3.32,3l.32,3.26A2,2,0,0,0,100,71L129.2,56.65a63.82,63.82,0,0,1,.52,8l-26,12.89A1.57,1.57,0,0,0,104.37,80.51Z" style="fill:#fff"/></g></g></svg>