<svg xmlns="http://www.w3.org/2000/svg" viewBox="0 0 129.72 129.72"><g id="Слой_2" data-name="Слой 2"><g id="Слой_1-2" data-name="Слой 1"><circle cx="64.86" cy="64.86" r="64.86" style="fill:#ffcf18"/><circle cx="34.08" cy="61.03" r="8.83" style="fill:#542915"/><circle cx="99.13" cy="61.03" r="8.83" style="fill:#542915"/><path d="M21.78,53.87l.23.23a1.81,1.81,0,0,0,2.7-.14,12.68,12.68,0,0,1,4.74-3.76A13,13,0,0,1,38,49.54a1.82,1.82,0,0,0,2.22-1.35v0A1.81,1.81,0,0,0,39,46a16.67,16.67,0,0,0-11.52.81,16.08,16.08,0,0,0-5.82,4.67A1.81,1.81,0,0,0,21.78,53.87Z" style="fill:#542915"/><path d="M87.2,52.16l.11.06A2.06,2.06,0,0,0,90,51.77a13.58,13.58,0,0,1,7.72-4.86,12.93,12.93,0,0,1,5,0A2.06,2.06,0,0,0,105,45.65l0,0a2.08,2.08,0,0,0-1.41-2.83,16.07,16.07,0,0,0-10.51.87,15.81,15.81,0,0,0-6.53,5.57A2.08,2.08,0,0,0,87.2,52.16Z" style="fill:#542915"/><path d="M100.18,87.81h0a3,3,0,0,1,.53,4.07A34.27,34.27,0,0,1,73.43,106a3,3,0,0,1-3.06-3.17v0a3,3,0,0,1,2.73-2.82A34.06,34.06,0,0,0,96.34,88.16,2.76,2.76,0,0,1,100.18,87.81Z" style="fill:#542915"/></g></g></svg>