<svg xmlns="http://www.w3.org/2000/svg" viewBox="0 0 129.72 129.72"><g id="Слой_2" data-name="Слой 2"><g id="Слой_1-2" data-name="Слой 1"><circle cx="64.86" cy="64.86" r="64.86" style="fill:#ffcf18"/><path d="M21.88,53.76a1.13,1.13,0,0,1-1.17-1.7,10.27,10.27,0,0,1,7.68-4.92,9.3,9.3,0,0,1,9.08,5.23,1,1,0,0,1-1.12,1.42A32.61,32.61,0,0,0,29.94,53,38.76,38.76,0,0,0,21.88,53.76Z" style="fill:#542915"/><path d="M92.44,53.76a1.13,1.13,0,0,1-1.17-1.7A10.27,10.27,0,0,1,99,47.14,9.28,9.28,0,0,1,108,52.37a1,1,0,0,1-1.12,1.42A32.61,32.61,0,0,0,100.5,53,38.83,38.83,0,0,0,92.44,53.76Z" style="fill:#542915"/><path d="M82.06,97.17a30.44,30.44,0,0,0-17.64-5.68,30.85,30.85,0,0,0-17.51,5.65C35.39,91.19,27.59,81,29.2,76.6c.77-2.13,4.39-2.93,11.64-4.53,4.51-1,10.24-1.88,24.12-2,13.71-.09,19.22.7,23.74,1.69,6.91,1.51,10.36,2.27,11.16,4.38C101.56,80.65,93.71,91.11,82.06,97.17Z" style="fill:#542915"/><path d="M82.06,97.17A38.38,38.38,0,0,1,65,101.71a38.65,38.65,0,0,1-18.06-4.57,30.85,30.85,0,0,1,17.51-5.65A30.44,30.44,0,0,1,82.06,97.17Z" style="fill:#ce322e"/></g></g></svg>