<svg xmlns="http://www.w3.org/2000/svg" viewBox="0 0 131.12 129.72"><g id="Слой_2" data-name="Слой 2"><g id="Слой_1-2" data-name="Слой 1"><circle cx="64.86" cy="64.86" r="64.86" style="fill:#ffcf18"/><path d="M91.46,36.83V37a2.06,2.06,0,0,0,1.93,1.89,13.5,13.5,0,0,1,8.45,3.41,13,13,0,0,1,3,4,2.05,2.05,0,0,0,2.33,1.12h0a2.07,2.07,0,0,0,1.46-2.8,15.6,15.6,0,0,0-15.19-10A2.07,2.07,0,0,0,91.46,36.83Z" style="fill:#542915"/><path d="M23.42,47.5l.11,0A2.06,2.06,0,0,0,26,46.44a13.52,13.52,0,0,1,6.3-6.58,12.91,12.91,0,0,1,4.86-1.25,2.05,2.05,0,0,0,1.9-1.75v0a2.07,2.07,0,0,0-2-2.39,15.6,15.6,0,0,0-15,10.39A2.08,2.08,0,0,0,23.42,47.5Z" style="fill:#542915"/><path d="M22.26,60.68A1.13,1.13,0,0,1,21.09,59a10.28,10.28,0,0,1,7.68-4.93,9.29,9.29,0,0,1,9.08,5.24,1,1,0,0,1-1.12,1.42A32.61,32.61,0,0,0,30.32,60,38.14,38.14,0,0,0,22.26,60.68Z" style="fill:#542915"/><path d="M93.1,60.68A1.13,1.13,0,0,1,91.93,59a10.3,10.3,0,0,1,7.68-4.93,9.28,9.28,0,0,1,9.08,5.24,1,1,0,0,1-1.12,1.42,32.6,32.6,0,0,0-6.4-.77A38.23,38.23,0,0,0,93.1,60.68Z" style="fill:#542915"/><path d="M32.32,74.16a2.43,2.43,0,0,0-2.2,3.47A38.16,38.16,0,0,0,61.36,99.74c15.48,1.23,30.4-7.65,37.3-22.09a2.44,2.44,0,0,0-2.19-3.49Z" style="fill:#542915"/><path d="M122.65,28.34a1.91,1.91,0,0,0-3.11.09,53.11,53.11,0,0,0-4.35,7.89,52.49,52.49,0,0,0-3.83,12.84c-.85,7.25,4.91,12.91,10.33,12.66,5.16-.23,10.2-5.82,9.33-12.66a42.76,42.76,0,0,0-3.83-13.33A43.33,43.33,0,0,0,122.65,28.34Z" style="fill:#5fc0ec"/></g></g></svg>