<svg xmlns="http://www.w3.org/2000/svg" viewBox="0 0 136.25 129.72"><g id="Слой_2" data-name="Слой 2"><g id="Слой_1-2" data-name="Слой 1"><circle cx="64.86" cy="64.86" r="64.86" style="fill:#ffcf18"/><path d="M22.23,58.48l.12,0a2.07,2.07,0,0,0,2.48-1.09,13.53,13.53,0,0,1,6.3-6.59A13,13,0,0,1,36,49.6a2.06,2.06,0,0,0,1.9-1.75v0a2.09,2.09,0,0,0-2.06-2.4A15.63,15.63,0,0,0,20.88,55.8,2.06,2.06,0,0,0,22.23,58.48Z" style="fill:#542915"/><path d="M94.51,48.18v.12a2.08,2.08,0,0,0,1.93,1.9,13.54,13.54,0,0,1,8.46,3.4,12.91,12.91,0,0,1,3,4,2.06,2.06,0,0,0,2.33,1.12h0A2.08,2.08,0,0,0,111.7,56a16,16,0,0,0-6.86-8,15.72,15.72,0,0,0-8.34-2A2.07,2.07,0,0,0,94.51,48.18Z" style="fill:#542915"/><path d="M42.56,69.51a1.13,1.13,0,0,1,1.17,1.7,10.28,10.28,0,0,1-7.67,4.92A9.31,9.31,0,0,1,27,70.9a1,1,0,0,1,1.12-1.42,31.92,31.92,0,0,0,6.41.76A38.14,38.14,0,0,0,42.56,69.51Z" style="fill:#542915"/><path d="M106.05,69.51a1.13,1.13,0,0,1,1.17,1.7,10.28,10.28,0,0,1-7.67,4.92,9.28,9.28,0,0,1-9.08-5.23,1,1,0,0,1,1.11-1.42,31.92,31.92,0,0,0,6.41.76A38.14,38.14,0,0,0,106.05,69.51Z" style="fill:#542915"/><path d="M43.65,101a1.73,1.73,0,0,1-1.4-2.9c3.8-4.1,11.56-10.55,23-11,12.54-.45,21.2,6.6,25.31,10.94A1.74,1.74,0,0,1,89.21,101c-7.65-.53-15.84-.83-24.5-.78C57.33,100.3,50.29,100.58,43.65,101Z" style="fill:#542915"/><path d="M111.85,71.84a22.35,22.35,0,0,1,5.28,7.75,30.27,30.27,0,0,0,3.51,7.19,10.6,10.6,0,0,0,1,1.36c3.92,4.15,9.5,4.6,12.39,2.16a6.13,6.13,0,0,0,1.83-2.77,8.44,8.44,0,0,0-1-7.11,18.28,18.28,0,0,0-3.43-4.13C123.85,69.44,113.31,71.53,111.85,71.84Z" style="fill:#5fc0ec"/></g></g></svg>