<svg xmlns="http://www.w3.org/2000/svg" viewBox="0 0 129.72 129.72"><g id="Слой_2" data-name="Слой 2"><g id="Слой_1-2" data-name="Слой 1"><circle cx="64.86" cy="64.86" r="64.86" style="fill:#ffcf18"/><path d="M22.68,42.92V42.8a2,2,0,0,1,1.93-1.89,13.56,13.56,0,0,0,8.45-3.41,12.91,12.91,0,0,0,3-4,2,2,0,0,1,2.33-1.11h0a2.07,2.07,0,0,1,1.46,2.79,15.63,15.63,0,0,1-15.19,10A2.07,2.07,0,0,1,22.68,42.92Z" style="fill:#542915"/><path d="M107.71,42.92V42.8a2,2,0,0,0-1.93-1.89,13.56,13.56,0,0,1-8.45-3.41,12.91,12.91,0,0,1-3-4A2,2,0,0,0,92,32.34h0a2.07,2.07,0,0,0-1.46,2.79,15.63,15.63,0,0,0,15.2,10A2.07,2.07,0,0,0,107.71,42.92Z" style="fill:#542915"/><path d="M34,56.89l12.21,7.39A2,2,0,0,1,45.81,68L33.25,72.47a2,2,0,0,1-2.6-1.22h0A2,2,0,0,1,32,68.61l4.69-1.47a2,2,0,0,0,.4-3.72l-5.18-3a2,2,0,0,1-.65-3l0,0A2,2,0,0,1,34,56.89Z" style="fill:#542915"/><path d="M97.28,56.89,85.06,64.28A2,2,0,0,0,85.43,68L98,72.47a2,2,0,0,0,2.61-1.22h0a2,2,0,0,0-1.31-2.64L94.6,67.14a2,2,0,0,1-.41-3.72l5.19-3a2,2,0,0,0,.64-3l0,0A2,2,0,0,0,97.28,56.89Z" style="fill:#542915"/><path d="M38.58,90.56l2.65,2.3a2.49,2.49,0,0,0,3.23,0l8.79-7.4a2.48,2.48,0,0,1,3.27.07l7.34,6.7a2.49,2.49,0,0,0,3.31,0l7.76-6.77a2.5,2.5,0,0,1,3.29,0l8.18,7.29a2.48,2.48,0,0,0,3.24.05l2.7-2.25a2.48,2.48,0,0,1,3.35.15l.22.22a2.48,2.48,0,0,1-.09,3.59l-6.48,5.9a2.48,2.48,0,0,1-3.43-.08l-7.13-7.12a2.48,2.48,0,0,0-3.45-.06l-8.16,7.63a2.48,2.48,0,0,1-3.45,0l-7.35-7.35A2.48,2.48,0,0,0,53,93.32l-8.34,7.1a2.48,2.48,0,0,1-3.37-.13L35.2,94.2A2.49,2.49,0,0,1,35,90.94h0A2.47,2.47,0,0,1,38.58,90.56Z" style="fill:#542915"/></g></g></svg>