<svg xmlns="http://www.w3.org/2000/svg" viewBox="0 0 129.72 129.72"><g id="Слой_2" data-name="Слой 2"><g id="Слой_1-2" data-name="Слой 1"><path d="M129.72,64.86a64.65,64.65,0,0,1-20.89,47.68l-.24-64.3a22.34,22.34,0,0,1-16.76.31L91.6,124a65,65,0,0,1-53.47,0Q38,86.11,37.85,48.24a22.34,22.34,0,0,1-16.76.31l-.15,64.05A64.86,64.86,0,1,1,129.72,64.86Z" style="fill:#ffcf18"/><path d="M93,25.12l.11,0a2.07,2.07,0,0,1,2.51,1,13.6,13.6,0,0,0,6.5,6.39A12.75,12.75,0,0,0,107,33.58a2,2,0,0,1,2,1.69v0a2.07,2.07,0,0,1-2,2.46,15.94,15.94,0,0,1-10.07-3.1,15.72,15.72,0,0,1-5.19-6.83A2.07,2.07,0,0,1,93,25.12Z" style="fill:#542915"/><path d="M36.74,25.12l-.12,0a2.08,2.08,0,0,0-2.51,1,13.55,13.55,0,0,1-6.5,6.39,12.75,12.75,0,0,1-4.89,1.09,2.06,2.06,0,0,0-1.95,1.69v0a2.08,2.08,0,0,0,2,2.46A15.62,15.62,0,0,0,38,27.84,2.07,2.07,0,0,0,36.74,25.12Z" style="fill:#542915"/><path d="M53.27,82.72a12.17,12.17,0,0,1,10.8-12.25c.32,0,.65,0,1,0s.6,0,.9,0a12.21,12.21,0,0,1,11.33,12.3V90.5a12.18,12.18,0,0,1-10.79,12.24,13.08,13.08,0,0,1-1.77.05c-.31,0-.61,0-.91-.07A12.15,12.15,0,0,1,53.27,90.51Z" style="fill:#542915"/><path d="M38.13,124A65.12,65.12,0,0,1,20.94,112.6l.15-64a22.34,22.34,0,0,0,16.76-.31Q38,86.1,38.13,124Z" style="fill:#5fc0ec"/><path d="M108.83,112.54A64.61,64.61,0,0,1,91.6,124l.23-75.41a22.34,22.34,0,0,0,16.76-.31Z" style="fill:#5fc0ec"/><path d="M22.26,46.85a1.13,1.13,0,0,0-1.17,1.7,10.3,10.3,0,0,0,7.68,4.92,9.3,9.3,0,0,0,9.08-5.23,1,1,0,0,0-1.12-1.42,32.61,32.61,0,0,1-6.41.77A38.76,38.76,0,0,1,22.26,46.85Z" style="fill:#542915"/><path d="M93.1,46.85a1.13,1.13,0,0,0-1.17,1.7,10.31,10.31,0,0,0,7.68,4.92,9.28,9.28,0,0,0,9.08-5.23,1,1,0,0,0-1.11-1.42,32.8,32.8,0,0,1-6.41.77A38.86,38.86,0,0,1,93.1,46.85Z" style="fill:#542915"/></g></g></svg>