<svg xmlns="http://www.w3.org/2000/svg" viewBox="0 0 129.72 129.72"><g id="Слой_2" data-name="Слой 2"><g id="Слой_1-2" data-name="Слой 1"><circle cx="64.86" cy="64.86" r="64.86" style="fill:#ffcf18"/><circle cx="38.45" cy="53.03" r="7.25" style="fill:#542915"/><path d="M95.53,47,83.32,54.38a2,2,0,0,0,.36,3.67l12.56,4.52a2,2,0,0,0,2.6-1.22h0a2,2,0,0,0-1.3-2.64l-4.69-1.47a2,2,0,0,1-.4-3.72l5.18-3a2,2,0,0,0,.65-2.95l0,0A2,2,0,0,0,95.53,47Z" style="fill:#542915"/><path d="M98.51,70.36h.7a2.51,2.51,0,0,1,2.51,2.28,30.45,30.45,0,0,1-50.39,26,2.51,2.51,0,0,1-.13-3.69h0a2.53,2.53,0,0,1,3.35-.17A25.51,25.51,0,0,0,96,73,2.52,2.52,0,0,1,98.51,70.36Z" style="fill:#542915"/></g></g></svg>