<svg xmlns="http://www.w3.org/2000/svg" viewBox="0 0 129.72 129.72"><g id="Слой_2" data-name="Слой 2"><g id="Слой_1-2" data-name="Слой 1"><circle cx="64.86" cy="64.86" r="64.86" style="fill:#ffcf18"/><path d="M26.74,55.07a1.12,1.12,0,0,1-1.17-1.69,10.28,10.28,0,0,1,7.68-4.93,9.3,9.3,0,0,1,9.08,5.24,1,1,0,0,1-1.12,1.42,32.61,32.61,0,0,0-6.41-.77A38.87,38.87,0,0,0,26.74,55.07Z" style="fill:#542915"/><path d="M86.6,55.07a1.12,1.12,0,0,1-1.17-1.69,10.28,10.28,0,0,1,7.68-4.93,9.31,9.31,0,0,1,9.08,5.24,1,1,0,0,1-1.12,1.42,32.61,32.61,0,0,0-6.41-.77A38.81,38.81,0,0,0,86.6,55.07Z" style="fill:#542915"/><path d="M36.32,80.9a3.38,3.38,0,0,1,4.47-.54,39.57,39.57,0,0,0,45.67-.09,3.38,3.38,0,0,1,4.35.37l.29.29a3.39,3.39,0,0,1-.4,5.14,45.26,45.26,0,0,1-53.91-.16,3.37,3.37,0,0,1-.51-5Z" style="fill:#542915"/></g></g></svg>