<svg xmlns="http://www.w3.org/2000/svg" viewBox="0 0 129.72 129.72"><g id="Слой_2" data-name="Слой 2"><g id="Слой_1-2" data-name="Слой 1"><circle cx="64.86" cy="64.86" r="64.86" style="fill:#ffcf18"/><path d="M29.63,61.25a1.12,1.12,0,0,1-1.17-1.69,10.28,10.28,0,0,1,7.68-4.93,9.3,9.3,0,0,1,9.08,5.24,1,1,0,0,1-1.12,1.42,32.61,32.61,0,0,0-6.41-.77A38.87,38.87,0,0,0,29.63,61.25Z" style="fill:#542915"/><circle cx="90.48" cy="55.24" r="18.17" style="fill:#fff"/><circle cx="90.48" cy="55.24" r="7.25" style="fill:#542915"/><path d="M32.83,83.15a2.18,2.18,0,0,1,2.91-2.92,69.36,69.36,0,0,0,29.62,6.63A69.14,69.14,0,0,0,93,81a2.18,2.18,0,0,1,2.8,3,35.34,35.34,0,0,1-63-.88Z" style="fill:#542915"/><path d="M50.8,89.48a1.08,1.08,0,0,1,1.27-1.06,78.11,78.11,0,0,0,15.07,1.1A77.14,77.14,0,0,0,78.3,88.43a1.16,1.16,0,0,1,1.36,1.14v23.21A14.59,14.59,0,0,1,73,125.27a14.79,14.79,0,0,1-8.65,2.2,15.07,15.07,0,0,1-3.61-.69A14.72,14.72,0,0,1,50.8,112.7Z" style="fill:#ce322e"/></g></g></svg>