<svg xmlns="http://www.w3.org/2000/svg" viewBox="0 0 129.72 129.72"><g id="Слой_2" data-name="Слой 2"><g id="Слой_1-2" data-name="Слой 1"><circle cx="64.86" cy="64.86" r="64.86" style="fill:#ffcf18"/><path d="M40.3,55.13a1.12,1.12,0,0,1,1.17,1.69,10.3,10.3,0,0,1-7.68,4.93,9.29,9.29,0,0,1-9.08-5.24,1,1,0,0,1,1.11-1.42,32.8,32.8,0,0,0,6.41.77A38.91,38.91,0,0,0,40.3,55.13Z" style="fill:#542915"/><path d="M103.79,55.13A1.12,1.12,0,0,1,105,56.82a10.3,10.3,0,0,1-7.68,4.93,9.29,9.29,0,0,1-9.08-5.24,1,1,0,0,1,1.12-1.42,32.6,32.6,0,0,0,6.4.77A38.91,38.91,0,0,0,103.79,55.13Z" style="fill:#542915"/><path d="M42.08,78.77a1.74,1.74,0,0,0-1.4,2.91c3.8,4.09,11.56,10.55,23,11C76.26,93.09,84.92,86,89,81.7a1.73,1.73,0,0,0-1.38-2.92c-7.66.53-15.85.82-24.51.78C55.76,79.52,48.72,79.23,42.08,78.77Z" style="fill:#542915"/><circle cx="24.6" cy="77.61" r="9.56" style="fill:#f59e18"/><circle cx="106.16" cy="77.61" r="9.56" style="fill:#f59e18"/></g></g></svg>