<svg xmlns="http://www.w3.org/2000/svg" viewBox="0 0 130.51 129.72"><g id="Слой_2" data-name="Слой 2"><g id="Слой_1-2" data-name="Слой 1"><circle cx="64.86" cy="64.86" r="64.86" style="fill:#ffcf18"/><path d="M82.92,64.8a1.12,1.12,0,0,1-1.17-1.69,10.28,10.28,0,0,1,7.68-4.93,9.31,9.31,0,0,1,9.08,5.24,1,1,0,0,1-1.12,1.42A32.61,32.61,0,0,0,91,64.07,38.81,38.81,0,0,0,82.92,64.8Z" style="fill:#542915"/><path d="M97.89,122.19a4.45,4.45,0,0,1-4.61-1.7C82.64,105.94,79.11,91,85,82.24c1-1.47,5.4-7.53,12-7.35,5.39.15,10.48,4.36,13,10.67.57-.28,8.24-3.91,14.5.14,5.12,3.31,6.1,9.67,6,12.82C130,108.29,117,117.69,97.89,122.19Z" style="fill:#ce322e"/><path d="M25.41,42.41l.12,0A2.06,2.06,0,0,0,28,41.35a13.48,13.48,0,0,1,6.3-6.58,12.87,12.87,0,0,1,4.85-1.25,2,2,0,0,0,1.9-1.75v0A2.07,2.07,0,0,0,39,29.34,15.6,15.6,0,0,0,24.06,39.73,2.07,2.07,0,0,0,25.41,42.41Z" style="fill:#542915"/><path d="M80.5,51.27l.07.1a2.06,2.06,0,0,0,2.61.69,13.57,13.57,0,0,1,9-1.22,13,13,0,0,1,4.57,2.06,2.07,2.07,0,0,0,2.58-.19l0,0a2.08,2.08,0,0,0-.12-3.15A16,16,0,0,0,89.36,46a15.83,15.83,0,0,0-8.25,2.36A2.07,2.07,0,0,0,80.5,51.27Z" style="fill:#542915"/><circle cx="41.09" cy="63.12" r="7.25" style="fill:#542915"/><path d="M59.72,84.13l.48.58a1.62,1.62,0,0,0,2.2.32c1.9-1.39,3.83-1.62,4.83-.83a2.65,2.65,0,0,1,.8,2.37c-.23,1.62-2,3.06-4.54,3.59a1.62,1.62,0,0,0-1.33,1.58h0a1.6,1.6,0,0,0,1.3,1.56c3.18.65,5.14,2.42,5.14,4A3.38,3.38,0,0,1,67,99.78a5.09,5.09,0,0,1-5.41-.29,1.59,1.59,0,0,0-2.12.52l0,0a1.59,1.59,0,0,0,.39,2.16,9.84,9.84,0,0,0,7.72,1.92c.54-.11,5.42-1.14,6.1-5A6.49,6.49,0,0,0,70.83,93a1.61,1.61,0,0,1-.3-2.31c2.69-3.48,3.23-7.46,1.77-9.44-1.78-2.41-7.39-3-12.33.65A1.59,1.59,0,0,0,59.72,84.13Z" style="fill:#542915"/></g></g></svg>