<svg xmlns="http://www.w3.org/2000/svg" viewBox="0 0 143.07 129.72"><g id="Слой_2" data-name="Слой 2"><g id="Слой_1-2" data-name="Слой 1"><circle cx="71.6" cy="64.86" r="64.86" style="fill:#ffcf18"/><path d="M97.18,34.62v.13a2.07,2.07,0,0,0,1.93,1.89,13.53,13.53,0,0,1,8.46,3.41,12.84,12.84,0,0,1,3,4,2.07,2.07,0,0,0,2.34,1.12h0a2.08,2.08,0,0,0,1.47-2.8,15.62,15.62,0,0,0-15.2-10A2.08,2.08,0,0,0,97.18,34.62Z" style="fill:#542915"/><path d="M29.14,45.29l.12,0a2.06,2.06,0,0,0,2.47-1.09A13.57,13.57,0,0,1,38,37.65a12.91,12.91,0,0,1,4.86-1.25,2.06,2.06,0,0,0,1.9-1.75v0a2.09,2.09,0,0,0-2.06-2.4,16.07,16.07,0,0,0-10,3.41,15.85,15.85,0,0,0-5,7A2.08,2.08,0,0,0,29.14,45.29Z" style="fill:#542915"/><path d="M28,58.47a1.13,1.13,0,0,1-1.17-1.7,10.3,10.3,0,0,1,7.68-4.92,9.28,9.28,0,0,1,9.08,5.24,1,1,0,0,1-1.12,1.41A33.45,33.45,0,0,0,36,57.74,38.2,38.2,0,0,0,28,58.47Z" style="fill:#542915"/><path d="M98.83,58.47a1.13,1.13,0,0,1-1.17-1.7,10.28,10.28,0,0,1,7.67-4.92,9.28,9.28,0,0,1,9.08,5.24,1,1,0,0,1-1.11,1.41,33.45,33.45,0,0,0-6.41-.76A38.14,38.14,0,0,0,98.83,58.47Z" style="fill:#542915"/><path d="M121.28,61.22a1.38,1.38,0,0,0-.9,2.26A20.75,20.75,0,0,1,124,69.37a30.64,30.64,0,0,0,3.51,7.19,11.08,11.08,0,0,0,1,1.35c3.92,4.15,9.5,4.61,12.39,2.17a6.23,6.23,0,0,0,1.84-2.8,8.44,8.44,0,0,0-1-7.09,18.28,18.28,0,0,0-3.43-4.13C132.58,60.93,125.22,60.82,121.28,61.22Z" style="fill:#5fc0ec"/><path d="M21.79,61.22a1.38,1.38,0,0,1,.9,2.26,20.75,20.75,0,0,0-3.57,5.89,30.64,30.64,0,0,1-3.51,7.19,11.08,11.08,0,0,1-1,1.35c-3.91,4.15-9.5,4.61-12.39,2.17A6.21,6.21,0,0,1,.4,77.28a8.43,8.43,0,0,1,1-7.09,18.82,18.82,0,0,1,3.43-4.13C10.5,60.93,17.85,60.82,21.79,61.22Z" style="fill:#5fc0ec"/><path d="M106.43,75a38.44,38.44,0,0,1-22.5,20.72,16.37,16.37,0,0,0-24.51.13A38.43,38.43,0,0,1,36.58,75,2.65,2.65,0,0,1,39,71.32h6.5a65.06,65.06,0,0,0,26.34,5.44,65.18,65.18,0,0,0,25.68-5.44H104A2.66,2.66,0,0,1,106.43,75Z" style="fill:#542915"/><path d="M97.53,71.32a65.18,65.18,0,0,1-25.68,5.44,65.06,65.06,0,0,1-26.34-5.44Z" style="fill:#fff"/><path d="M83.93,95.76a37.71,37.71,0,0,1-24.51.13,16.37,16.37,0,0,1,24.51-.13Z" style="fill:#ce322e"/></g></g></svg>