<svg xmlns="http://www.w3.org/2000/svg" viewBox="0 0 129.72 129.72"><g id="Слой_2" data-name="Слой 2"><g id="Слой_1-2" data-name="Слой 1"><circle cx="64.86" cy="64.86" r="64.86" style="fill:#ffcf18"/><path d="M90.83,80.2A27.71,27.71,0,0,1,78.27,95.53a14.75,14.75,0,0,0-26,0A27.46,27.46,0,0,1,39.72,79.57a2.34,2.34,0,0,1,3.09-2.87,63.53,63.53,0,0,0,45,.57A2.34,2.34,0,0,1,90.83,80.2Z" style="fill:#542915"/><path d="M78.27,95.53a25.83,25.83,0,0,1-26,0,14.75,14.75,0,0,1,26,0Z" style="fill:#ce322e"/><path d="M39.12,62.61a4.48,4.48,0,0,1-4.68,1.51C17.09,59.23,5.11,49.66,4.3,39.15c-.14-1.77-.4-9.26,4.94-13.21,4.33-3.21,10.93-3,16.85.34.28-.57,4.07-8.16,11.5-8.83,6.07-.56,10.77,3.84,12.59,6.41C55.83,31.85,51.39,47.27,39.12,62.61Z" style="fill:#ce322e"/><path d="M96.52,64.27A4.46,4.46,0,0,1,91.78,63C80,49.35,75.2,34.77,80.3,25.54c.85-1.55,4.75-7.95,11.38-8.33,5.38-.3,10.81,3.47,13.9,9.54.54-.33,7.88-4.58,14.46-1.07,5.38,2.87,6.89,9.13,7,12.27C127.37,47.73,115.21,58.18,96.52,64.27Z" style="fill:#ce322e"/></g></g></svg>